<?xml version="1.0" encoding="UTF-8"?>
<svg id="Layer_1" data-name="Layer 1" xmlns="http://www.w3.org/2000/svg" viewBox="354.97 211.59 658.41 338.35" width="658.41" height="338.35">
  <g id="rival-mark">
    <g>
      <g>
        <path fill="#343434" d="M860.26,541.99c-13.42,2.6-28.11-1.22-35.11-13.13-8.85-15.06-5.89-34.39,4.61-47.99,6.62-8.58,14.89-14.79,24.28-20.04l37.68-21.09c-.74-13.33,4.21-44.68-10.13-50.09-9.85-3.72-20.06,2.11-24.56,11.26-7.82,15.91-2.4,29.94-16.7,34.44-5.89,1.85-13.88,2.13-17.28-3.54-3.13-5.23-1.15-12.82,1.35-18.55,12.18-27.92,43.77-42.59,73.33-35.11,12.49,3.16,20.38,13.88,20.43,26.96l.41,106.92c.01,3.25,3.27,6.82,5.36,7.78,9.82,4.5,13.68-15.71,13.28-24.47l8.61.1c.46,11.37-.58,21.71-5.37,31.82-6.88,14.51-25.43,20.68-38.2,10.62-5.41-4.26-6.96-11.06-10.44-17.99-8.69,10.65-17.76,19.44-31.54,22.1ZM886.44,508.93c7.33-15.97,5.33-38.31,5.19-55.64-23.64,11.94-46.34,27.13-42.27,55.49,1.2,8.5,8.04,14.96,16.68,14.63,8.9-.34,16.26-6.3,20.4-14.48Z"/>
        <path fill="#343434" d="M950.77,539.9c-.84-2.69-1.19-6.21-.2-8.38,6.25-2.89,16.34-.39,16.33-12.71l-.03-180.4c0-6.6-5.06-9.6-10.75-9.55-3.42.03-6.16-1.48-6.21-4.24-.07-3.46,1.12-5.1,4.76-6.1,10.96-3,23.49-8.57,32.97-13.26,1.07-.53,3.84-.42,4.63-.14.98.36,1.78,2.2,1.78,4.02v210.69c0,5.1,2.92,8.66,7.33,9.6l8.56,1.83c1.44,1.72,1.37,6.43-.04,8.63l-59.12.02Z"/>
        <path fill="#343434" d="M775.31,379.15l45.66-.05c1.42,2.32,1.43,6.78.32,9.26-7.6.54-12.64,4.1-14.98,11.39l-45.17,140.41c-2.57,2.66-8.79,2.67-11.45-.1l-41.13-128.55c-4.23-13.21-3.73-20.78-17.08-23.36-1.66-1.52-1.7-5.98-.82-8.97l57.22-.06c1.67,1.97,1.9,7.99-.2,8.96l-13.08,3.46c-.89,5.33-.84,9.43.7,14.43l26.86,86.98,29-90.8c1.6-5.02-.13-10.94-5.35-12.04l-9.99-2.09c-1.73-.8-1.39-5.92-.5-8.89Z"/>
        <g>
          <path fill="#343434" d="M630.28,531.57l12.43-3.51c2.41-.68,4.21-6.03,4.21-9.13v-105.77c0-3.37-2.12-9.16-4.9-9.68l-11.38-2.13c-.29-2.28-.17-5.83.46-8.04,12.59-4.06,23.86-8.66,34.9-15.5,2.36-1.46,5.18-1.8,7.96-.56l.07,142.62c0,5.15,3.01,8.61,7.5,9.55l8.48,1.79c1.36,1.6,1.19,5.78.42,8.66l-59.58.05-.59-8.35Z"/>
          <path fill="#343434" d="M677.43,333.41c.8,11.67-6.85,20.11-17.73,19.63-10.04-.44-17.05-8.9-16.26-19.72.66-9.15,7.22-16.87,16.22-17.18,9.48-.33,17.06,6.91,17.76,17.27Z"/>
        </g>
      </g>
      <g>
        <path fill="#343434" d="M474.21,494.73c-11.75-26.52-5.19-59.93,21.26-73.42,38.64-19.71,76.53-1.48,100.61-28.62l-6.96-8.45c-45.63,9.85-85.94-17.41-132.7-4.8-16.49,4.45-31.67,13.89-39.89,29.58,11.42-4.73,21.75-9.33,34.07-7.51-7.6,5.37-13.64,10.96-18.71,18.31-8.08,12.09-11.67,25.54-12.94,40.27l-.14,79.77-61.81.06.02-179.9c2.9-53.25,29.24-108.16,67.13-144.87.62-.6,2.53-1.56,3.23-1.23s2.14,1.69,2.59,2.67l16.43,36.24,11,24.96c21.25.47,41.85,5.81,59.93,16.73,30.48,18.4,21.15,42.06,49.52,57.53,14.7,8.01,29.92,14.12,45.47,20.37,4.03,1.62,6.27,5.04,4.66,9.58-5.33,15.01-17.03,26.76-31.68,33.47-21.37,9.79-37.51,4.81-54.07,11.69-8.95,3.72-12.58,12.9-9.17,22.18,10.17,27.62,63.76,73.09,89.13,90.52l-77.1-.1c-14.37-.02-26.85-6.42-37.59-15.25-9.52-8.35-17.12-18.2-22.26-29.78ZM440.47,302.26c5.54-8.97,4.9-17.41,1.38-26.23-5.44-13.6-9.58-27.33-17.77-40.43-16.77,26.5-24.67,60.73-18.33,91.95,13.98-3.79,26.3-13.09,34.72-25.28ZM511.48,349.24c3.91.49,10.59-.74,10.73-4.94.24-7.06-7.71-13.29-14.57-12.7-4.97.43-9.1,2.4-13.14,5.21,4.48,6.17,9.01,11.43,16.97,12.43Z"/>
        <path fill="#343434" d="M497.4,274.02c-11.74-3.26-21.36-5.54-33.05-6.51l-6.29-14.37c10.57-12.97,20.81-24.93,36.32-33.13,5.32,11.88,4.36,39.43,3.03,54.02Z"/>
      </g>
    </g>
  </g>
</svg>
